<svg xmlns="http://www.w3.org/2000/svg" x="0px" y="0px" width="50" height="50" viewBox="0 0 50 50">
<path d="M 28 0 C 22.533333 0 18.527184 3.7896774 15.935547 7.4179688 C 13.934714 10.219134 12.732564 12.96894 12.279297 14.097656 C 10.978882 14.425327 10 15.604284 10 17 L 10 20 C 10 21.012783 10.516203 21.912639 11.294922 22.457031 C 11.128453 23.333845 11.043854 24.240631 11.029297 25.164062 C 8.8833746 25.360408 7.0861124 26.020201 5.8105469 27.117188 C 4.3260292 28.393871 3.4276961 30.059908 2.875 31.675781 C 1.7696078 34.907528 2.0019531 38.068359 2.0019531 38.068359 A 1.0001 1.0001 0 0 0 3.6015625 38.798828 L 4.4824219 38.134766 C 4.4732819 39.171197 4.5969948 40.086639 4.8535156 40.765625 C 5.2985337 41.943544 6 42.625 6 42.625 A 1.0001 1.0001 0 0 0 7.5410156 42.414062 L 8.1699219 41.375 C 8.5391363 42.43749 8.9409898 43.35746 9.3320312 44.001953 C 9.9784882 45.067407 10.59375 45.636719 10.59375 45.636719 A 1.0001 1.0001 0 0 0 12.220703 45.189453 L 12.710938 43.585938 C 18.275409 48.386336 24.779297 49.974609 24.779297 49.974609 A 1.0001 1.0001 0 0 0 25.220703 49.974609 C 25.220703 49.974609 31.723814 48.386274 37.289062 43.585938 L 37.779297 45.189453 A 1.0001 1.0001 0 0 0 39.408203 45.636719 C 39.408203 45.636719 40.021512 45.067407 40.667969 44.001953 C 41.05901 43.35746 41.460864 42.43749 41.830078 41.375 L 42.458984 42.414062 A 1.0001 1.0001 0 0 0 44 42.625 C 44 42.625 44.701495 41.943616 45.146484 40.765625 C 45.407845 40.073742 45.526762 39.132753 45.509766 38.070312 L 46.394531 38.708984 A 1.0001 1.0001 0 0 0 47.974609 38.001953 C 47.974609 38.001953 48.32796 34.86035 47.279297 31.638672 C 46.754965 30.027833 45.86393 28.362613 44.355469 27.09375 C 43.052693 25.997902 41.203591 25.344392 38.970703 25.15625 C 38.955709 24.235578 38.871076 23.331374 38.705078 22.457031 C 39.483797 21.912639 40 21.012783 40 20 L 40 17 C 40 15.627387 39.051339 14.469189 37.783203 14.119141 C 37.573894 13.378707 37.097204 11.728635 36.423828 9.984375 C 37.490342 10.039563 38.809531 10.334327 40.078125 10.900391 C 41.105356 11.358755 41.884656 11.79248 42.447266 12.123047 C 42.154309 12.711835 42 13.356048 42 14 C 42 14.972222 42.318681 15.957881 43.001953 16.726562 C 43.685226 17.495244 44.75 18 46 18 C 47.25 18 48.314774 17.495244 48.998047 16.726562 C 49.681319 15.957881 50 14.972222 50 14 C 50 13.027778 49.681319 12.042119 48.998047 11.273438 C 48.432223 10.636885 47.596742 10.200306 46.619141 10.0625 C 46.46934 9.2879231 46.084267 7.8087306 45.064453 6.3007812 C 43.609384 4.1492418 40.786037 2 36 2 C 33.068095 2 32.338102 1.597409 31.662109 1.1601562 C 30.986117 0.72290356 30.045087 -1.4802974e-16 28 0 z M 28 2 C 29.687913 2 29.706165 2.2770965 30.576172 2.8398438 C 31.446179 3.402591 32.848905 4 36 4 C 40.213963 4 42.251772 5.7119155 43.408203 7.421875 C 44.211966 8.6103602 44.467132 9.5650082 44.589844 10.171875 L 43.734375 10.597656 C 43.36136 10.36265 42.483823 9.7833821 40.894531 9.0742188 C 39.056063 8.2538693 36.839126 7.4288435 34.845703 8.0117188 A 1.0001 1.0001 0 0 0 34.804688 8.0195312 C 32.455545 8.4893596 30.897751 8.2445631 29.941406 7.9257812 C 28.985061 7.6069995 28.707031 7.2929688 28.707031 7.2929688 A 1.0001 1.0001 0 0 0 27.990234 6.9902344 A 1.0001 1.0001 0 0 0 27.292969 8.7070312 C 27.292969 8.7070312 28.014939 9.3930005 29.308594 9.8242188 C 30.468825 10.210962 32.155415 10.451245 34.402344 10.115234 C 34.953967 11.45298 35.382232 12.92733 35.679688 14 L 14.503906 14 C 15.070298 12.713897 16.054667 10.695732 17.564453 8.5820312 C 19.972816 5.2103227 23.466667 2 28 2 z M 46 12 C 46.749999 12 47.185226 12.245244 47.501953 12.601562 C 47.81868 12.957882 48 13.472222 48 14 C 48 14.527778 47.81868 15.042119 47.501953 15.398438 C 47.185226 15.754755 46.749999 16 46 16 C 45.250001 16 44.814774 15.754756 44.498047 15.398438 C 44.18132 15.042118 44 14.527778 44 14 C 44 13.472222 44.18132 12.957881 44.498047 12.601562 C 44.814774 12.245245 45.250001 12 46 12 z M 13 16 L 37 16 C 37.56503 16 38 16.43497 38 17 L 38 20 C 38 20.56503 37.56503 21 37 21 L 13 21 C 12.43497 21 12 20.56503 12 20 L 12 17 C 12 16.43497 12.43497 16 13 16 z M 13.222656 23 L 36.777344 23 C 36.921718 23.775534 37 24.575843 37 25.396484 C 37 25.530519 36.981276 25.717263 36.972656 25.964844 A 1.0001 1.0001 0 0 0 37.972656 27 C 40.347355 27 41.924915 27.663176 43.068359 28.625 C 44.211804 29.586824 44.93316 30.894402 45.376953 32.257812 C 45.810213 33.588864 45.95252 34.923676 45.998047 35.957031 L 44.816406 35.103516 A 1.0001 1.0001 0 0 0 43.271484 36.193359 C 43.779776 37.939364 43.585529 39.131471 43.298828 39.941406 L 42.353516 38.378906 A 1.0001 1.0001 0 0 0 40.517578 38.708984 C 40.166393 40.540256 39.589196 41.734891 39.085938 42.617188 L 38.779297 41.611328 A 1.0001 1.0001 0 0 0 37.121094 41.191406 C 31.964435 46.270767 25.355279 47.864952 25 47.949219 C 24.644723 47.864952 18.03651 46.270691 12.880859 41.191406 A 1.0001 1.0001 0 0 0 11.222656 41.611328 L 10.916016 42.617188 C 10.412756 41.73489 9.83556 40.540256 9.484375 38.708984 A 1.0001 1.0001 0 0 0 7.6464844 38.378906 L 6.7011719 39.941406 C 6.414786 39.131627 6.2224386 37.938899 6.7304688 36.193359 A 1.0001 1.0001 0 0 0 5.1679688 35.115234 L 4.0703125 35.941406 C 4.1535859 34.910198 4.321821 33.627443 4.7675781 32.324219 C 5.241007 30.940092 5.9834708 29.606128 7.1152344 28.632812 C 8.2469979 27.659498 9.7701131 27 12.029297 27 A 1.0001 1.0001 0 0 0 13.027344 25.960938 C 13.017616 25.716527 13 25.531857 13 25.396484 C 13 24.575843 13.078282 23.775534 13.222656 23 z M 16.65625 24.990234 C 16.22401 24.977909 15.9375 25.001953 15.9375 25.001953 A 1.0002538 1.0002538 0 1 0 16.070312 26.998047 C 16.070312 26.998047 17.028895 26.952737 17.761719 27.136719 C 17.852021 27.159424 17.946372 27.207855 18.039062 27.246094 A 2 2 0 0 0 19 31 A 2 2 0 0 0 20.972656 29.322266 C 21.560356 29.696182 22.228856 29.994141 23.044922 29.994141 A 1.0001 1.0001 0 1 0 23.044922 27.994141 C 22.515483 27.994141 21.935366 27.618291 21.173828 26.990234 C 20.41229 26.362178 19.53056 25.51973 18.248047 25.197266 C 17.666458 25.051255 17.08849 25.00256 16.65625 24.990234 z M 33.388672 24.990234 C 32.956432 25.00256 32.378464 25.051254 31.796875 25.197266 C 30.514362 25.51973 29.632632 26.362178 28.871094 26.990234 C 28.109556 27.618291 27.531392 27.994141 27.001953 27.994141 A 1.0001 1.0001 0 1 0 27.001953 29.994141 C 27.799742 29.994141 28.455159 29.709325 29.033203 29.347656 A 2 2 0 0 0 31 31 A 2 2 0 0 0 31.976562 27.257812 C 32.079363 27.213825 32.183344 27.161827 32.283203 27.136719 C 33.016026 26.95274 33.974609 26.998047 33.974609 26.998047 A 1.0002538 1.0002538 0 1 0 34.107422 25.001953 C 34.107422 25.001953 33.820912 24.977909 33.388672 24.990234 z M 12 30 C 9.8333333 30 8.528671 30.557266 7.7929688 31.292969 C 7.4251176 31.66082 7.2179451 32.057103 7.1132812 32.371094 C 7.0086175 32.685085 7 33 7 33 A 1.0001 1.0001 0 1 0 9 33.023438 C 9.0008748 33.029445 9.002626 33.031181 9.0117188 33.003906 C 9.0187636 32.982771 9.0355595 32.950714 9.0507812 32.919922 C 9.2386821 34.738054 9.9738013 36.264901 11.021484 37.492188 C 12.241542 38.921397 13.846539 39.976862 15.525391 40.880859 C 18.883094 42.688853 22.587597 44.001659 24.292969 45.707031 A 1.0001 1.0001 0 0 0 25.707031 45.707031 C 27.412403 44.001659 31.116906 42.688853 34.474609 40.880859 C 36.153461 39.976862 37.758458 38.921398 38.978516 37.492188 C 40.026199 36.264901 40.761318 34.738054 40.949219 32.919922 C 40.96444 32.950714 40.981236 32.982771 40.988281 33.003906 C 40.997373 33.031181 41.001078 33.031399 41.001953 33.025391 A 1.0001 1.0001 0 1 0 43 33 C 43 33 42.9914 32.685085 42.886719 32.371094 C 42.782055 32.057103 42.574882 31.66082 42.207031 31.292969 C 41.471329 30.557266 40.166667 30 38 30 A 1.0001 1.0001 0 1 0 38 32 C 38.39033 32 38.704064 32.028357 38.998047 32.0625 C 38.984302 33.800345 38.414671 35.075795 37.458984 36.195312 C 36.491542 37.328603 35.096539 38.273138 33.525391 39.119141 C 30.641554 40.671975 27.319188 41.881436 25 43.830078 C 22.680812 41.881436 19.358446 40.671975 16.474609 39.119141 C 14.903461 38.273138 13.508458 37.328602 12.541016 36.195312 C 11.585329 35.075795 11.015698 33.800345 11.001953 32.0625 C 11.295936 32.028357 11.60967 32 12 32 A 1.0001 1.0001 0 1 0 12 30 z M 25.009766 32.994141 C 23.324766 32.994141 21.890734 33.649266 21.302734 34.572266 C 21.216734 34.696266 21.147609 34.833375 21.099609 34.984375 C 21.097609 34.990375 21.09575 34.997906 21.09375 35.003906 C 21.04575 35.158906 21.015625 35.320141 21.015625 35.494141 C 21.015625 36.322141 21.610703 36.994141 22.345703 36.994141 C 23.080703 36.994141 23.677734 36.501953 23.677734 36.501953 C 23.677734 37.329953 24.272813 38.001953 25.007812 38.001953 C 25.742812 38.001953 26.339844 37.329953 26.339844 36.501953 C 26.339844 36.501953 26.934922 36.994141 27.669922 36.994141 C 28.404922 36.994141 29.001953 36.322141 29.001953 35.494141 C 29.003953 35.320141 28.971828 35.158906 28.923828 35.003906 C 28.921828 34.997906 28.921922 34.990375 28.919922 34.984375 C 28.870922 34.833375 28.800844 34.696266 28.714844 34.572266 C 28.127844 33.649266 26.694766 32.994141 25.009766 32.994141 z"></path>
</svg>